<svg width="245" height="382" viewBox="0 0 245 382" fill="none" xmlns="http://www.w3.org/2000/svg">
<path d="M83.6875 259.539C123.364 297.707 144.756 259.539 144.756 259.539" stroke="#FFFFFF" stroke-width="20"/>
<path d="M81.6211 280.955C115.714 319.737 144.323 285.167 144.323 285.167" stroke="#FFFFFF" stroke-width="20"/>
<path d="M15.3503 324.663C7.6244 346.43 5.81431 371.471 5.81431 371.471C5.81431 371.471 3.07414 396.631 3.07422 365.829C3.07428 342.464 9.22422 332.551 12.7271 321.007C28.3034 287.232 21.8662 306.305 15.3503 324.663Z" fill="#FFFFFF" stroke="#FFFFFF"/>
<path d="M228.741 318.125C232.649 340.873 230.171 365.838 230.171 365.838C230.171 365.838 228.588 391.078 233.831 360.749C237.808 337.744 233.435 326.935 231.948 314.972C222.348 279.062 225.445 298.939 228.741 318.125Z" fill="#FFFFFF" stroke="#FFFFFF"/>
<path d="M164.906 180.582C129.951 258.228 84.1348 239.987 65.1694 189.404C59.9388 175.454 64.9506 183.32 68.7969 189.357L68.8268 189.404C112.218 257.511 141.264 213.331 158.628 176.927C165.988 161.496 166.37 177.331 164.906 180.582Z" fill="#FFFFFF"/>
<path d="M107.934 134.887C101.736 127.576 86.4772 215.152 118.267 181.934C91.0877 199.656 107.934 134.887 107.934 134.887Z" fill="#FFFFFF"/>
<path d="M51.0276 111.524C51.0276 111.524 87.9019 93.0867 98.1532 59.2319C98.1532 59.2319 104.75 90.7026 120.962 107.709C120.962 107.709 116.591 95.8682 114.445 82.5966C114.445 82.5966 126.366 111.365 153.545 117.405C153.545 117.405 147.346 111.286 147.346 105.405C147.346 105.405 158.869 119.233 163.717 117.405V139.259C180.724 128.451 200.194 162.703 162.843 170.332C162.843 170.332 163.558 196.081 124.299 228.584C124.299 228.584 123.701 252.152 125.809 265.856C129.38 289.069 146.392 297.644 146.392 322.041C146.392 325.538 144.405 341.194 151.637 339.446C156.888 338.176 173.651 345.225 180.803 350.073C201.552 364.135 213.615 359.472 229.995 297.644C238.691 264.823 199.479 219.604 206.79 160.398C207.871 151.644 209.223 114.952 206.79 79.3382C201.783 6.06645 146.392 -16.1853 107.451 11.4701C23.6894 -21.9072 -28.2507 104.649 16.3779 181.537C44.1929 229.458 25.5768 263.472 16.3779 273.802C-3.64823 296.293 7.87501 336.346 7.87501 336.346C7.87501 336.346 21.2261 278.65 44.1926 313.935C50.674 323.893 41.3893 330.793 39.4248 339.446C35.6897 355.896 53.5373 358.983 66.7623 359.472C78.9653 359.923 85.8225 353.271 94.1002 344.293C122.091 313.935 114.763 296.929 103.239 290.809C90.6942 284.147 90.0664 263.184 94.1002 249.564C100.22 228.902 96.2937 231.051 89.2525 223.418C61.8351 193.696 67.4498 191.868 60.723 168.743C42.4447 174.862 31.2394 142.359 54.7622 139.021C49.1203 123.921 43.8465 121.46 46.9746 109.696C48.8372 102.69 52.458 93.0868 60.723 93.0868C52.458 103.1 51.0276 111.524 51.0276 111.524Z" fill="#FFFFFF"/>
<path d="M64.875 143.075C73.998 132.982 82.5021 132.744 94.9132 140.691C89.3518 126.068 67.583 132.229 64.875 143.075Z" fill="#FFFFFF"/>
<path d="M151.559 145.539C137.893 131.712 119.451 140.691 118.338 140.135C123.583 127.897 151.559 129.725 151.559 145.539Z" fill="#FFFFFF"/>
<path d="M90.4478 141.328C90.4478 146.419 86.783 150.546 82.2623 150.546C77.7416 150.546 74.0768 146.419 74.0768 141.328C73.4402 134.97 72.5659 133.222 81.706 132.586C90.4478 133.222 90.4478 136.236 90.4478 141.328Z" fill="#FFFFFF"/>
<path d="M143.139 143.593C143.139 148.685 137.805 153.006 133.284 153.006C128.764 153.006 123.271 148.685 123.271 143.593C123.271 135.84 122.762 135.487 131.902 134.852C140.644 135.487 143.139 138.502 143.139 143.593Z" fill="#FFFFFF"/>
<path d="M139.128 139.683C135.919 136.126 130.11 138.312 130.692 140.504C131.273 142.696 142.337 143.241 139.128 139.683Z" fill="#16191B"/>
<path d="M88.6018 138.034C85.5054 135.493 79.9004 137.054 80.4614 138.62C81.0224 140.186 91.6982 140.575 88.6018 138.034Z" fill="#16191B"/>
<path d="M29.8309 83.6C41.2706 43.3749 25.2795 81.5508 25.2795 81.5508C25.6572 62.055 22.3001 50.87 38.9502 39.1892C55.6002 27.5085 49.806 29.8485 42.226 39.5268C34.8438 48.9525 36.4109 52.8685 41.7191 47.7219C44.9182 44.6202 62.4457 34.481 62.4457 34.481C62.4457 34.481 49.2036 45.9348 45.6179 53.1189C40.6546 63.0631 55.8325 59.5382 64.3412 42.0766C69.5519 31.3831 70.6514 31.4839 63.3344 52.5361C59.0911 64.7444 40.4314 76.9015 40.4314 76.9015C40.4314 76.9015 57.2676 56.6074 53.5183 58.3667C40.9539 64.2624 36.0802 83.1231 38.8973 70.5086C41.2073 60.1649 27.8099 90.7061 29.8309 83.6Z" fill="#16191B" stroke="black" stroke-opacity="0.2"/>
<path d="M175.973 269.486C153.546 234.188 171.416 271.521 171.416 271.521C157.109 258.272 153.244 265.904 143.344 239.182C133.445 212.46 154.225 250.247 163.419 258.407C169.201 263.54 160.189 243.458 157.091 236.744C150.127 221.653 160.99 212.46 160.99 212.46C160.99 212.46 160.438 215.894 163.418 223.35C167.542 233.671 175.302 234.066 167.923 216.097C163.404 205.094 160.99 195.36 185.753 242.858C185.753 242.858 174.068 231.045 172.888 235.014C168.932 248.318 179.774 264.502 172.229 254.008C166.041 245.403 179.935 275.722 175.973 269.486Z" fill="#16191B" stroke="black" stroke-opacity="0.2"/>
<path d="M66.6286 336.239C69.6123 341.426 47.1524 316.025 71.1553 288.477C79.5238 278.873 67.4814 294.917 64.6559 307.618C58.5679 334.984 77.1194 282.772 72.509 305.65C70.8508 313.878 76.2544 314.904 78.7627 323.896C79.3869 326.134 87.8077 347.15 77.3575 330.872C67.5788 315.64 57.592 307.797 66.6286 336.239Z" fill="#16191B" stroke="#FFFFFF"/>
</svg>
